<svg xmlns="http://www.w3.org/2000/svg" xmlns:xlink="http://www.w3.org/1999/xlink" viewBox="0 0 882.23 606.45"><defs><style>.cls-1{fill:none;}.cls-2{fill:#96c5cb;}.cls-3{clip-path:url(#clip-path);}.cls-4{fill:#fff;}.cls-5{fill:#97c6cb;}.cls-6{clip-path:url(#clip-path-2);}.cls-7{fill:#f8c572;}.cls-8{fill:#88ba6c;}.cls-9{fill:#62a059;}.cls-10{clip-path:url(#clip-path-3);}.cls-11{clip-path:url(#clip-path-4);}.cls-12{fill:#f7c673;}</style><clipPath id="clip-path" transform="translate(-11)"><circle class="cls-1" cx="430.59" cy="277.16" r="187.53"/></clipPath><clipPath id="clip-path-2" transform="translate(-11)"><path class="cls-1" d="M242.66,264.32s10,2.24,15.62-5.58c4.16-5.81,13.4-24.56,26.79-23.44s14.52,35.72,31.26,34.6c21.19-1.41,17.86-94.88,56.93-96s31.47,107.41,58.05,122.8c42.42,24.55,62.51-71.45,184.18-43.54,0,0,79.26-290.23-205.39-242.23S242.66,264.32,242.66,264.32Z"/></clipPath><clipPath id="clip-path-3" transform="translate(-11)"><path class="cls-1" d="M425.17,468.18s2.6-91.36,53.58-146.65C538.19,257.07,616.89,268,616.89,268s29,98.26-17.58,145.68C490.47,524.42,425.17,468.18,425.17,468.18Z"/></clipPath><clipPath id="clip-path-4" transform="translate(-11)"><path class="cls-1" d="M242.66,264.32s10,2.24,15.62-5.58c4.16-5.81,13.4-24.56,26.79-23.44s14.52,35.72,31.26,34.6c21.19-1.41,18-92.92,56.93-96,42.42-3.34,33.95,105.82,59.55,122.8,35.33,23.44,81.1-73.68,177.1-72.56,0,0,84.84-261.21-199.81-213.21S242.66,264.32,242.66,264.32Z"/></clipPath></defs><title>Asset 3</title><g id="Layer_2" data-name="Layer 2"><g id="Layer_1-2" data-name="Layer 1"><path class="cls-2" d="M16.61,605.35a5.34,5.34,0,0,1-4-1.65,5.61,5.61,0,0,1-1.6-4.07V525.16A5.56,5.56,0,0,1,12.6,521a5.44,5.44,0,0,1,4-1.59,5.5,5.5,0,0,1,4.4,2.09l48,63.8V525.16A5.48,5.48,0,0,1,70.62,521a5.64,5.64,0,0,1,4.07-1.59A5.41,5.41,0,0,1,78.76,521a5.68,5.68,0,0,1,1.54,4.13v74.47a5.73,5.73,0,0,1-1.54,4.07,5.31,5.31,0,0,1-4.07,1.65,6.5,6.5,0,0,1-2.36-.5,4.62,4.62,0,0,1-2-1.48l-48-63.8v60.06a5.61,5.61,0,0,1-1.6,4.07A5.46,5.46,0,0,1,16.61,605.35Z" transform="translate(-11)"/><path class="cls-2" d="M123,605.79a26.44,26.44,0,0,1-14.41-4A28.57,28.57,0,0,1,98.5,590.88a32.48,32.48,0,0,1-3.68-15.56,30.63,30.63,0,0,1,4-15.62,30.35,30.35,0,0,1,52.58,0,30.54,30.54,0,0,1,4,15.62h-4.29a32.37,32.37,0,0,1-3.69,15.56,28.54,28.54,0,0,1-10.06,10.89A26.49,26.49,0,0,1,123,605.79Zm2.2-9.9a18.77,18.77,0,0,0,10-2.7,19.21,19.21,0,0,0,6.93-7.37,21.8,21.8,0,0,0,2.53-10.5,22,22,0,0,0-2.53-10.62,19.21,19.21,0,0,0-6.93-7.37,19.88,19.88,0,0,0-20,0,19.49,19.49,0,0,0-7,7.37,21.63,21.63,0,0,0-2.58,10.62,21.38,21.38,0,0,0,2.58,10.5,19.49,19.49,0,0,0,7,7.37A18.84,18.84,0,0,0,125.18,595.89Zm24.64,9.57a5.45,5.45,0,0,1-5.61-5.61V583l2.09-11.66,9.13,4v24.53a5.47,5.47,0,0,1-5.61,5.61Z" transform="translate(-11)"/><path class="cls-2" d="M166.32,556.84a5.29,5.29,0,0,1-3.74-1.32,4.28,4.28,0,0,1-1.43-3.3,4.53,4.53,0,0,1,1.43-3.52,5.29,5.29,0,0,1,3.74-1.32h25.41a5.31,5.31,0,0,1,3.74,1.32,4.57,4.57,0,0,1,1.43,3.52,4.32,4.32,0,0,1-1.43,3.3,5.31,5.31,0,0,1-3.74,1.32Zm24.42,48.51a18,18,0,0,1-9.9-2.81,19.61,19.61,0,0,1-6.93-7.64A23.13,23.13,0,0,1,171.38,584V531.54a5.5,5.5,0,1,1,11,0V584a11.26,11.26,0,0,0,2.42,7.37,7.38,7.38,0,0,0,5.94,3h3.74a4.31,4.31,0,0,1,3.35,1.54,5.69,5.69,0,0,1,1.38,4,5,5,0,0,1-1.82,4,7,7,0,0,1-4.67,1.54Z" transform="translate(-11)"/><path class="cls-2" d="M235,605.9a28.15,28.15,0,0,1-13.59-3.25,23.36,23.36,0,0,1-9.46-9.51q-3.47-6.27-3.46-15.4V550.68a5.61,5.61,0,1,1,11.22,0v27.06A20.19,20.19,0,0,0,222,587.91a14.36,14.36,0,0,0,6.27,5.94,20.16,20.16,0,0,0,8.91,1.93,18.42,18.42,0,0,0,8.41-1.87,15.64,15.64,0,0,0,5.89-5.06,12.36,12.36,0,0,0,2.2-7.15h6.93A23.19,23.19,0,0,1,257.23,594a24.29,24.29,0,0,1-9.13,8.69A26.79,26.79,0,0,1,235,605.9Zm24.31-.55a5.45,5.45,0,0,1-5.61-5.61V550.68a5.39,5.39,0,0,1,1.59-4.07,5.59,5.59,0,0,1,9.63,4.07v49.06a5.56,5.56,0,0,1-1.54,4A5.43,5.43,0,0,1,259.27,605.35Z" transform="translate(-11)"/><path class="cls-2" d="M286.87,605.35A5.64,5.64,0,0,1,282.8,604a5.48,5.48,0,0,1-1.43-4.12V550.68a5,5,0,0,1,5.5-5.5,4.85,4.85,0,0,1,5.5,5.5v49.17a5.63,5.63,0,0,1-1.37,4.07A5.49,5.49,0,0,1,286.87,605.35Zm-.11-37.62A22,22,0,0,1,290,555.9a23.78,23.78,0,0,1,8.74-8.3,24.28,24.28,0,0,1,12.1-3.08c4.4,0,7.69.71,9.85,2.14s3,3.14,2.47,5.12a4.25,4.25,0,0,1-1.26,2.36,4.39,4.39,0,0,1-2.15,1.05,6.64,6.64,0,0,1-2.64-.11,30.66,30.66,0,0,0-12.65-.22,17.05,17.05,0,0,0-8.85,4.51,11.44,11.44,0,0,0-3.25,8.36Z" transform="translate(-11)"/><path class="cls-2" d="M355.4,605.79a33.13,33.13,0,0,1-16.22-3.91,28.58,28.58,0,0,1-11.11-10.78,30.66,30.66,0,0,1-4-15.78,32.35,32.35,0,0,1,3.8-15.9,27.76,27.76,0,0,1,10.5-10.78,30.11,30.11,0,0,1,15.4-3.9,27.54,27.54,0,0,1,14.74,3.79A24.68,24.68,0,0,1,377.9,559a34.65,34.65,0,0,1,3.24,15.35,4.58,4.58,0,0,1-1.43,3.46,5,5,0,0,1-3.63,1.38H331.75v-8.8h44l-4.51,3.08a23.41,23.41,0,0,0-2.2-9.85,16,16,0,0,0-15.29-9.4A20,20,0,0,0,343,557a17.7,17.7,0,0,0-6.77,7.53A24.61,24.61,0,0,0,334,575.32a21.11,21.11,0,0,0,2.75,10.78,20.26,20.26,0,0,0,7.59,7.48,22.14,22.14,0,0,0,11.11,2.75,20.94,20.94,0,0,0,7-1.27,21.51,21.51,0,0,0,5.77-2.91,6.27,6.27,0,0,1,3.58-1.27,4.77,4.77,0,0,1,3.35,1.16,5.19,5.19,0,0,1,2,3.63,3.89,3.89,0,0,1-1.76,3.41,30.46,30.46,0,0,1-9.29,4.84A33.42,33.42,0,0,1,355.4,605.79Z" transform="translate(-11)"/><path class="cls-2" d="M431.74,606.45a41.5,41.5,0,0,1-30.19-12.71,43.45,43.45,0,0,1-9-14,45.86,45.86,0,0,1-3.25-17.38,45.15,45.15,0,0,1,3.25-17.22,43.55,43.55,0,0,1,9-14,42.21,42.21,0,0,1,13.47-9.4,40.75,40.75,0,0,1,16.72-3.41,43,43,0,0,1,14.58,2.2,41.54,41.54,0,0,1,12.26,7.26,6,6,0,0,1,1.38,1.37,4.17,4.17,0,0,1,.66,1.43,7.77,7.77,0,0,1,.16,1.71,4.71,4.71,0,0,1-1.48,3.52,5.51,5.51,0,0,1-3.63,1.54,5.78,5.78,0,0,1-4-1.43,32.4,32.4,0,0,0-8.41-5.39q-4.35-1.87-11.5-1.87a28.8,28.8,0,0,0-12.21,2.64,32.19,32.19,0,0,0-10.06,7.26,33.56,33.56,0,0,0-6.77,10.72,36.61,36.61,0,0,0,0,26.18,33.61,33.61,0,0,0,6.77,10.73,31.39,31.39,0,0,0,10.06,7.2,30.13,30.13,0,0,0,22.83.66,41,41,0,0,0,9.62-5.33,5.75,5.75,0,0,1,3.91-1.27,4.92,4.92,0,0,1,3.24,1.54,5.26,5.26,0,0,1,1.32,3.8,6.31,6.31,0,0,1-.38,2.14,4.88,4.88,0,0,1-1.38,1.93,40.64,40.64,0,0,1-12.65,7.2A43.21,43.21,0,0,1,431.74,606.45Zm28.71-13.64-11-2.2V570.92H434.27a6,6,0,0,1-4.07-1.43,4.82,4.82,0,0,1,0-7.26,6,6,0,0,1,4.07-1.43h20.57a5.41,5.41,0,0,1,4.07,1.59,5.68,5.68,0,0,1,1.54,4.13Z" transform="translate(-11)"/><path class="cls-2" d="M498.18,605.79A33.1,33.1,0,0,1,482,601.88a28.51,28.51,0,0,1-11.11-10.78,30.66,30.66,0,0,1-4-15.78,32.35,32.35,0,0,1,3.8-15.9,27.76,27.76,0,0,1,10.5-10.78,30.11,30.11,0,0,1,15.4-3.9,27.54,27.54,0,0,1,14.74,3.79A24.75,24.75,0,0,1,520.68,559a34.65,34.65,0,0,1,3.24,15.35,4.58,4.58,0,0,1-1.43,3.46,5,5,0,0,1-3.63,1.38H474.53v-8.8h44L514,573.45a23.56,23.56,0,0,0-2.2-9.85,16,16,0,0,0-15.29-9.4A20,20,0,0,0,485.81,557a17.7,17.7,0,0,0-6.77,7.53,24.61,24.61,0,0,0-2.31,10.84,21.11,21.11,0,0,0,2.75,10.78,20.19,20.19,0,0,0,7.59,7.48,22.14,22.14,0,0,0,11.11,2.75,21,21,0,0,0,7-1.27,21.51,21.51,0,0,0,5.77-2.91,6.24,6.24,0,0,1,3.58-1.27,4.77,4.77,0,0,1,3.35,1.16,5.19,5.19,0,0,1,2,3.63,3.91,3.91,0,0,1-1.76,3.41,30.46,30.46,0,0,1-9.29,4.84A33.52,33.52,0,0,1,498.18,605.79Z" transform="translate(-11)"/><path class="cls-2" d="M556.81,605.79a41.51,41.51,0,0,1-14.24-2.37,27.3,27.3,0,0,1-10.18-6,4.79,4.79,0,0,1-1.37-4,5.25,5.25,0,0,1,2.14-3.68,5.74,5.74,0,0,1,4.35-1.49,5.94,5.94,0,0,1,3.68,1.93,17.55,17.55,0,0,0,6,3.9,22.55,22.55,0,0,0,9.18,1.82q6.38,0,9.74-2.09a6.48,6.48,0,0,0,3.46-5.39q.1-3.3-3.13-5.72t-11.83-4q-11.11-2.21-16.11-6.6a13.82,13.82,0,0,1-5-10.78,13.43,13.43,0,0,1,3.3-9.3,20,20,0,0,1,8.47-5.5A32.32,32.32,0,0,1,556,544.74a33.58,33.58,0,0,1,12.87,2.31,21.89,21.89,0,0,1,8.91,6.38,5.06,5.06,0,0,1,1.43,3.68,4.28,4.28,0,0,1-1.87,3.25,5.44,5.44,0,0,1-4.18.77,8,8,0,0,1-4.07-2,14.94,14.94,0,0,0-5.94-3.63,24.9,24.9,0,0,0-7.37-1,18.39,18.39,0,0,0-8.19,1.65q-3.36,1.65-3.36,4.84a6.34,6.34,0,0,0,1.05,3.57,8.76,8.76,0,0,0,4.12,2.86,53.42,53.42,0,0,0,9,2.48,49,49,0,0,1,13,4.18,17.26,17.26,0,0,1,6.87,5.88,14.4,14.4,0,0,1,2.09,7.76,16.24,16.24,0,0,1-2.69,9.13,18.64,18.64,0,0,1-7.92,6.49A31.08,31.08,0,0,1,556.81,605.79Z" transform="translate(-11)"/><path class="cls-2" d="M588.82,556.84a5.29,5.29,0,0,1-3.74-1.32,4.32,4.32,0,0,1-1.43-3.3,4.57,4.57,0,0,1,1.43-3.52,5.29,5.29,0,0,1,3.74-1.32h25.41A5.29,5.29,0,0,1,618,548.7a4.57,4.57,0,0,1,1.43,3.52,4.32,4.32,0,0,1-1.43,3.3,5.29,5.29,0,0,1-3.74,1.32Zm24.42,48.51a18,18,0,0,1-9.9-2.81,19.77,19.77,0,0,1-6.93-7.64A23.13,23.13,0,0,1,593.88,584V531.54a5.5,5.5,0,1,1,11,0V584a11.31,11.31,0,0,0,2.42,7.37,7.38,7.38,0,0,0,5.94,3H617a4.33,4.33,0,0,1,3.36,1.54,5.73,5.73,0,0,1,1.37,4,5,5,0,0,1-1.81,4,7,7,0,0,1-4.68,1.54Z" transform="translate(-11)"/><path class="cls-2" d="M657.46,605.9a28.08,28.08,0,0,1-13.58-3.25,23.3,23.3,0,0,1-9.46-9.51q-3.46-6.27-3.47-15.4V550.68a5.61,5.61,0,1,1,11.22,0v27.06a20.19,20.19,0,0,0,2.31,10.17,14.36,14.36,0,0,0,6.27,5.94,20.16,20.16,0,0,0,8.91,1.93,18.47,18.47,0,0,0,8.42-1.87,15.69,15.69,0,0,0,5.88-5.06,12.29,12.29,0,0,0,2.2-7.15h6.93A23.27,23.27,0,0,1,679.74,594a24.29,24.29,0,0,1-9.13,8.69A26.86,26.86,0,0,1,657.46,605.9Zm24.31-.55a5.45,5.45,0,0,1-5.61-5.61V550.68a5.39,5.39,0,0,1,1.59-4.07,5.56,5.56,0,0,1,4-1.54,5.29,5.29,0,0,1,5.61,5.61v49.06a5.52,5.52,0,0,1-1.54,4A5.41,5.41,0,0,1,681.77,605.35Z" transform="translate(-11)"/><path class="cls-2" d="M709.38,605.35a5.62,5.62,0,0,1-4.07-1.38,5.44,5.44,0,0,1-1.43-4.12V550.68a5,5,0,0,1,5.5-5.5,4.86,4.86,0,0,1,5.5,5.5v49.17a5.64,5.64,0,0,1-1.38,4.07A5.47,5.47,0,0,1,709.38,605.35Zm-.11-37.62a22,22,0,0,1,3.24-11.83,23.81,23.81,0,0,1,8.75-8.3,24.25,24.25,0,0,1,12.1-3.08q6.6,0,9.84,2.14c2.17,1.43,3,3.14,2.48,5.12a4.2,4.2,0,0,1-1.27,2.36,4.36,4.36,0,0,1-2.14,1.05,6.63,6.63,0,0,1-2.64-.11,30.66,30.66,0,0,0-12.65-.22,17.12,17.12,0,0,0-8.86,4.51,11.43,11.43,0,0,0-3.24,8.36Z" transform="translate(-11)"/><path class="cls-2" d="M777.91,605.79a33.14,33.14,0,0,1-16.23-3.91,28.58,28.58,0,0,1-11.11-10.78,30.75,30.75,0,0,1-4-15.78,32.35,32.35,0,0,1,3.79-15.9,27.71,27.71,0,0,1,10.51-10.78,30.06,30.06,0,0,1,15.4-3.9A27.56,27.56,0,0,1,791,548.53,24.66,24.66,0,0,1,800.4,559a34.52,34.52,0,0,1,3.25,15.35,4.62,4.62,0,0,1-1.43,3.46,5,5,0,0,1-3.63,1.38H754.26v-8.8h44l-4.51,3.08a23.56,23.56,0,0,0-2.2-9.85,16,16,0,0,0-15.29-9.4A20,20,0,0,0,765.53,557a17.67,17.67,0,0,0-6.76,7.53,24.61,24.61,0,0,0-2.31,10.84,21.11,21.11,0,0,0,2.75,10.78,20.12,20.12,0,0,0,7.59,7.48,22.11,22.11,0,0,0,11.11,2.75,20.93,20.93,0,0,0,7-1.27,21.59,21.59,0,0,0,5.78-2.91,6.24,6.24,0,0,1,3.57-1.27A4.79,4.79,0,0,1,797.6,592a5.22,5.22,0,0,1,2,3.63,3.93,3.93,0,0,1-1.76,3.41,30.52,30.52,0,0,1-9.3,4.84A33.41,33.41,0,0,1,777.91,605.79Z" transform="translate(-11)"/><path class="cls-2" d="M836.54,605.79a41.57,41.57,0,0,1-14.25-2.37,27.34,27.34,0,0,1-10.17-6,4.83,4.83,0,0,1-1.38-4,5.26,5.26,0,0,1,2.15-3.68,5.71,5.71,0,0,1,4.34-1.49,6,6,0,0,1,3.69,1.93,17.4,17.4,0,0,0,6,3.9,22.57,22.57,0,0,0,9.19,1.82c4.25,0,7.5-.7,9.73-2.09a6.49,6.49,0,0,0,3.47-5.39c.07-2.2-1-4.11-3.14-5.72s-6.1-2.94-11.82-4q-11.12-2.21-16.12-6.6a13.81,13.81,0,0,1-5-10.78,13.43,13.43,0,0,1,3.3-9.3,20,20,0,0,1,8.47-5.5,32.27,32.27,0,0,1,10.78-1.81,33.58,33.58,0,0,1,12.87,2.31,21.89,21.89,0,0,1,8.91,6.38,5.1,5.1,0,0,1,1.43,3.68,4.3,4.3,0,0,1-1.87,3.25,5.44,5.44,0,0,1-4.18.77,8,8,0,0,1-4.07-2,15.08,15.08,0,0,0-5.94-3.63,25,25,0,0,0-7.37-1,18.47,18.47,0,0,0-8.2,1.65Q824,557.83,824,561a6.41,6.41,0,0,0,1,3.57,8.8,8.8,0,0,0,4.13,2.86,53.42,53.42,0,0,0,9,2.48,48.89,48.89,0,0,1,13,4.18A17.37,17.37,0,0,1,858.1,580a14.4,14.4,0,0,1,2.09,7.76,16.17,16.17,0,0,1-2.7,9.13,18.52,18.52,0,0,1-7.92,6.49A31,31,0,0,1,836.54,605.79Z" transform="translate(-11)"/><g class="cls-3"><circle class="cls-4" cx="419.59" cy="277.16" r="187.53"/><path class="cls-5" d="M242.66,264.32s10,2.24,15.62-5.58c4.16-5.81,13.4-24.56,26.79-23.44s14.52,35.72,31.26,34.6c21.19-1.41,13.39-98.17,56.93-96,44.65,2.24,33,105.58,59.16,121.68C476,322.37,513.91,223,609.91,224.14c0,0,84.84-261.21-199.81-213.21S242.66,264.32,242.66,264.32Z" transform="translate(-11)"/><g class="cls-6"><circle class="cls-7" cx="597.86" cy="266.95" r="108.68"/></g><path class="cls-8" d="M215.87,269.9c15.62,5.59,15,6.42,27.18,7.26s23.88-8.37,33.93-3.35,20.37,36.28,39.35,38.51c30.94,3.64,29.15-85.68,50.23-87.9C398.38,221.07,380,334.65,442.75,340c1.77.15-36,65.3-28.47,120.56C420.91,509.08,248.52,432,248.52,432L195.77,306.46Z" transform="translate(-11)"/><path class="cls-9" d="M425.17,468.18s2.6-91.36,53.58-146.65C538.19,257.07,616.89,268,616.89,268s29,98.26-17.58,145.68C490.47,524.42,425.17,468.18,425.17,468.18Z" transform="translate(-11)"/><g class="cls-10"><path class="cls-8" d="M420.14,467.49s32.08-48.6,58.61-77.31c35.16-38,67.91-61.11,75.35-64.46,7-3.17,5.58.74,1.67,4.18-11.55,10.18-9.21,5-57.77,55.26C466.32,417.94,438.75,463,438.75,463Z" transform="translate(-11)"/></g><g class="cls-11"><path class="cls-12" d="M478.91,250.3A137.73,137.73,0,0,0,477,268.58l-88.08-4.11c-2.83-12.94-5.31-24.54-9.38-31.9Zm-52.08,84.63,56.93-17.76a137.34,137.34,0,0,1-4.54-17.75l-74.72,13C409.83,321.89,416.94,329.88,426.83,334.93Zm69-130.79-115.56-67-15.88,32,123.2,51.47A138.5,138.5,0,0,1,495.87,204.14Zm32-37.23L441.89,64,416,88.66l98.43,90.74A139.13,139.13,0,0,1,527.87,166.91ZM496.59,345.15,423.84,387a213,213,0,0,0-9.8,44L507,360.09A137.33,137.33,0,0,1,496.59,345.15ZM735.85,207.66l121.09-69.58-19.77-29.75L726.4,192.79A138,138,0,0,1,735.85,207.66Zm-29.51-36.92,89.32-106L766.9,43.55,692.31,159.84A140,140,0,0,1,706.34,170.74Zm6.65-154L678.72,6.7l-30,133.53a139.15,139.15,0,0,1,17.06,5.52ZM570.64,143.3,524.75,16.4,492,30.71l61.77,119.55A138.41,138.41,0,0,1,570.64,143.3ZM751.08,252.06,889.44,228,881,193.23,747.22,235A139.24,139.24,0,0,1,751.08,252.06Zm-46.27,126.6,90,107.69,25.86-24.64L717.31,366.43A138.77,138.77,0,0,1,704.81,378.66Zm29.78-36,121.79,70.64,15.88-32L742.3,327A138.51,138.51,0,0,1,734.59,342.62ZM664.5,402.8,711.93,534l32.73-14.3L680.47,395.43A136.09,136.09,0,0,1,664.5,402.8Zm88.14-121.34a137.79,137.79,0,0,1-2,17.33l138.63,24.73,4-35.5ZM623.53,411.74c-1.83.11-3.65.18-5.47.22l-.28,138.41,35.65-2.25-17.7-137.7C631.72,411,627.65,411.48,623.53,411.74Zm-94.95-30L441,485.63l28.75,21.19,73.6-114.76A139.55,139.55,0,0,1,528.58,381.71ZM359.59,229l-12.15-2.16-4,35.49,3.83.18C351,248.71,354.49,235.68,359.59,229ZM523.7,533.58,558,543.66l30.19-134.23a135.85,135.85,0,0,1-17.3-4.6ZM618.9,0,583.25,2.25l17.3,134.55c1.87-.19,3.74-.36,5.63-.48q6.27-.39,12.44-.22Z" transform="translate(-11)"/></g></g></g></g></svg>